# xmcd CD database file
#
# Track frame offsets:
#	150
#	12120
#	22877
#	36866
#	48599
#	63063
#	75485
#	87310
#	101183
#	114963
#	128447
#	140358
#	154291
#	166212
#	178641
#	190603
#	202064
#	212087
#	222340
#	236147
#	247340
#	262688
#	278074
#
# Disc length: 3880 seconds
#
# Revision: 0
# Processed by: cddbd v1.5.2PL0 Copyright (c) Steve Scherf et al.
# Submitted via: CDex 1.51
#
DISCID=390f2617
DTITLE=Tune Wranglers - Drivin' The Dogies Along
DYEAR=1900
DGENRE=Country
TTITLE0=hey Go Wild Over Me
TTITLE1=Drivin' The Dogies Along
TTITLE2=Ride On Old Timer Ride On
TTITLE3=They Cut Down The Old Pine Tree
TTITLE4=In The Shadow Of The Pines
TTITLE5=I've Got No Use For The Women
TTITLE6=Echo Valley
TTITLE7=That Little Texas Town
TTITLE8=Dreams Of Silver Memories Of Gold
TTITLE9=When The Sun Goes Down In Arizona
TTITLE10=Back To Nevada
TTITLE11=A Little While Ago
TTITLE12=Who'll Take Your Place When You're Gone
TTITLE13=Look Out For The Ghost
TTITLE14=Honey Smile For Me
TTITLE15=Leave Me With A Smile
TTITLE16=It Ain't Gonna Rain No More
TTITLE17=Sweetest Girl In The World (My Blue Eyed Jane)
TTITLE18=Old Montana Moon
TTITLE19=Ridin' For The Rio Grande
TTITLE20=Dixie Moon
TTITLE21=Rio Pecos Rose
TTITLE22=I'll Never Let You Cry (Instr)
EXTD=
EXTT0=
EXTT1=
EXTT2=
EXTT3=
EXTT4=
EXTT5=
EXTT6=
EXTT7=
EXTT8=
EXTT9=
EXTT10=
EXTT11=
EXTT12=
EXTT13=
EXTT14=
EXTT15=
EXTT16=
EXTT17=
EXTT18=
EXTT19=
EXTT20=
EXTT21=
EXTT22=
PLAYORDER=
